<svg width="144" height="50" viewBox="0 0 144 50" fill="none" xmlns="http://www.w3.org/2000/svg">
<path d="M64.0625 35.3229V14.9062H71.5583C73.1917 14.9062 74.5333 15.1881 75.5833 15.752C76.6528 16.2965 77.45 17.0452 77.975 17.998C78.5 18.9313 78.7625 19.9716 78.7625 21.1188C78.7625 22.3632 78.4319 23.5006 77.7708 24.5312C77.1292 25.5617 76.1181 26.3104 74.7375 26.777L78.9667 35.3229H74.6792L70.8875 27.273H67.7958V35.3229H64.0625ZM67.7958 24.5312H71.325C72.5694 24.5312 73.4833 24.2298 74.0667 23.627C74.65 23.0242 74.9417 22.227 74.9417 21.2354C74.9417 20.2631 74.65 19.4854 74.0667 18.902C73.5028 18.3187 72.5792 18.027 71.2958 18.027H67.7958V24.5312Z" fill="#FCFCFD"/>
<path d="M88.2927 35.6726C86.8344 35.6726 85.5413 35.3614 84.4135 34.7392C83.2857 34.117 82.401 33.242 81.7594 32.1142C81.1177 30.9864 80.7969 29.6837 80.7969 28.2059C80.7969 26.7087 81.108 25.3767 81.7302 24.2101C82.3719 23.0434 83.2469 22.1392 84.3552 21.4976C85.483 20.8364 86.8052 20.5059 88.3219 20.5059C89.7413 20.5059 90.9955 20.817 92.0844 21.4392C93.1733 22.0614 94.0191 22.917 94.6219 24.0059C95.2441 25.0753 95.5552 26.2712 95.5552 27.5934C95.5552 27.8073 95.5455 28.0309 95.526 28.2642C95.526 28.4976 95.5163 28.7406 95.4969 28.9934H84.501C84.5788 30.1212 84.9677 31.0059 85.6677 31.6476C86.3871 32.2892 87.2524 32.6101 88.2635 32.6101C89.0219 32.6101 89.6538 32.4448 90.1594 32.1142C90.6844 31.7642 91.0732 31.317 91.326 30.7726H95.1177C94.8455 31.6864 94.3885 32.5226 93.7469 33.2809C93.1246 34.0198 92.3469 34.6031 91.4135 35.0309C90.4996 35.4587 89.4594 35.6726 88.2927 35.6726ZM88.3219 23.5392C87.408 23.5392 86.601 23.8017 85.901 24.3267C85.201 24.8323 84.7538 25.6101 84.5594 26.6601H91.7635C91.7052 25.7073 91.3552 24.9489 90.7135 24.3851C90.0719 23.8212 89.2746 23.5392 88.3219 23.5392Z" fill="#FCFCFD"/>
<path d="M103.682 35.6726C102.438 35.6726 101.417 35.4781 100.62 35.0892C99.823 34.6809 99.23 34.1462 98.8411 33.4851C98.4522 32.8239 98.2578 32.0948 98.2578 31.2976C98.2578 29.9559 98.7828 28.867 99.8328 28.0309C100.882 27.1948 102.457 26.7767 104.557 26.7767H108.232V26.4267C108.232 25.4351 107.95 24.7059 107.387 24.2392C106.823 23.7726 106.123 23.5392 105.287 23.5392C104.528 23.5392 103.867 23.7239 103.303 24.0934C102.739 24.4434 102.389 24.9684 102.253 25.6684H98.6078C98.705 24.6184 99.055 23.7045 99.6578 22.9267C100.28 22.1489 101.077 21.5559 102.049 21.1476C103.021 20.7198 104.11 20.5059 105.316 20.5059C107.377 20.5059 109 21.0212 110.187 22.0517C111.373 23.0823 111.966 24.5406 111.966 26.4267V35.3226H108.787L108.437 32.9892C108.009 33.767 107.406 34.4087 106.628 34.9142C105.87 35.4198 104.888 35.6726 103.682 35.6726ZM104.528 32.7559C105.598 32.7559 106.424 32.4059 107.007 31.7059C107.61 31.0059 107.989 30.1406 108.145 29.1101H104.966C103.974 29.1101 103.264 29.2948 102.837 29.6642C102.409 30.0142 102.195 30.4517 102.195 30.9767C102.195 31.5406 102.409 31.9781 102.837 32.2892C103.264 32.6003 103.828 32.7559 104.528 32.7559Z" fill="#FCFCFD"/>
<path d="M122.178 35.6728C120.817 35.6728 119.602 35.3422 118.533 34.6811C117.463 34.02 116.617 33.1158 115.995 31.9686C115.373 30.8214 115.062 29.5186 115.062 28.0603C115.062 26.6019 115.373 25.3089 115.995 24.1811C116.617 23.0339 117.463 22.1394 118.533 21.4978C119.602 20.8366 120.817 20.5061 122.178 20.5061C123.267 20.5061 124.22 20.7103 125.037 21.1186C125.853 21.5269 126.515 22.1005 127.021 22.8394V14.3228H130.753V35.3228H127.428L127.021 33.2519C126.554 33.8936 125.931 34.4575 125.153 34.9436C124.395 35.4297 123.403 35.6728 122.178 35.6728ZM122.966 32.4061C124.171 32.4061 125.153 32.0075 125.912 31.2103C126.689 30.3936 127.078 29.3533 127.078 28.0894C127.078 26.8255 126.689 25.795 125.912 24.9978C125.153 24.1811 124.171 23.7728 122.966 23.7728C121.78 23.7728 120.799 24.1714 120.021 24.9686C119.243 25.7658 118.853 26.7964 118.853 28.0603C118.853 29.3241 119.243 30.3644 120.021 31.1811C120.799 31.9978 121.78 32.4061 122.966 32.4061Z" fill="#FCFCFD"/>
<path d="M134.557 35.3226V20.8559H137.882L138.232 23.5684C138.757 22.6351 139.467 21.8962 140.361 21.3517C141.275 20.7878 142.345 20.5059 143.57 20.5059V24.4434H142.52C141.703 24.4434 140.974 24.5698 140.332 24.8226C139.69 25.0753 139.185 25.5128 138.815 26.1351C138.465 26.7573 138.29 27.6226 138.29 28.7309V35.3226H134.557Z" fill="#FCFCFD"/>
<mask id="mask0_70_909" style="mask-type:alpha" maskUnits="userSpaceOnUse" x="0" y="0" width="50" height="50">
<path d="M25 50C38.8071 50 50 38.8071 50 25C50 11.1929 38.8071 0 25 0C11.1929 0 0 11.1929 0 25C0 38.8071 11.1929 50 25 50Z" fill="#C4C4C4"/>
</mask>
<g mask="url(#mask0_70_909)">
<path d="M50 0H0V50H50V0Z" fill="url(#paint0_linear_70_909)"/>
<path fill-rule="evenodd" clip-rule="evenodd" d="M27.9135 39.3845C26.9755 39.5728 26.0051 39.6716 25.0117 39.6716C22.3414 39.6716 19.8379 38.9577 17.6816 37.7103V60.6147H10.3516V25.5353H10.3608C10.3547 25.3615 10.3516 25.1869 10.3516 25.0116C10.3516 16.9151 16.9151 10.3516 25.0117 10.3516C33.1082 10.3516 39.6717 16.9151 39.6717 25.0116C39.6717 29.4529 37.6967 33.433 34.577 36.1214L51.4649 60.2397L45.4605 64.4441L27.9135 39.3845ZM17.6816 25.0116C17.6816 29.0599 20.9634 32.3416 25.0117 32.3416C29.0599 32.3416 32.3417 29.0599 32.3417 25.0116C32.3417 20.9633 29.0599 17.6816 25.0117 17.6816C20.9634 17.6816 17.6816 20.9633 17.6816 25.0116Z" fill="#FCFCFD"/>
<mask id="mask1_70_909" style="mask-type:alpha" maskUnits="userSpaceOnUse" x="0" y="0" width="50" height="50">
<path d="M25 50C38.8071 50 50 38.8071 50 25C50 11.1929 38.8071 0 25 0C11.1929 0 0 11.1929 0 25C0 38.8071 11.1929 50 25 50Z" fill="#C4C4C4"/>
</mask>
<g mask="url(#mask1_70_909)">
<path d="M50 0H0V50H50V0Z" fill="#3772FF"/>
<path d="M10.0176 25.5967H17.624V61.9988H10.0176V25.5967Z" fill="white"/>
<path d="M43.75 25.0488C43.75 35.2693 35.4646 43.5547 25.2441 43.5547C15.0236 43.5547 6.73828 35.2693 6.73828 25.0488C6.73828 14.8283 15.0236 6.54297 25.2441 6.54297C35.4646 6.54297 43.75 14.8283 43.75 25.0488ZM15.9912 25.0488C15.9912 30.1591 20.1339 34.3018 25.2441 34.3018C30.3544 34.3018 34.4971 30.1591 34.4971 25.0488C34.4971 19.9386 30.3544 15.7959 25.2441 15.7959C20.1339 15.7959 15.9912 19.9386 15.9912 25.0488Z" fill="#3772FF"/>
<path d="M31.8031 31.791L25.5723 36.1538L46.4517 65.9727L52.6825 61.6098L31.8031 31.791Z" fill="white"/>
<path d="M40.4432 25.0532C40.4432 33.455 33.6322 40.266 25.2304 40.266C16.8286 40.266 10.0176 33.455 10.0176 25.0532C10.0176 16.6513 16.8286 9.84033 25.2304 9.84033C33.6322 9.84033 40.4432 16.6513 40.4432 25.0532ZM17.624 25.0532C17.624 29.2541 21.0295 32.6596 25.2304 32.6596C29.4313 32.6596 32.8368 29.2541 32.8368 25.0532C32.8368 20.8523 29.4313 17.4467 25.2304 17.4467C21.0295 17.4467 17.624 20.8523 17.624 25.0532Z" fill="white"/>
</g>
<mask id="mask2_70_909" style="mask-type:alpha" maskUnits="userSpaceOnUse" x="0" y="0" width="50" height="50">
<path d="M25 50C38.8071 50 50 38.8071 50 25C50 11.1929 38.8071 0 25 0C11.1929 0 0 11.1929 0 25C0 38.8071 11.1929 50 25 50Z" fill="#C4C4C4"/>
</mask>
<g mask="url(#mask2_70_909)">
<path d="M50 0H0V50H50V0Z" fill="#3772FF"/>
<path d="M10.0176 25.5967H17.624V61.9988H10.0176V25.5967Z" fill="white"/>
<path d="M43.75 25.0488C43.75 35.2693 35.4646 43.5547 25.2441 43.5547C15.0236 43.5547 6.73828 35.2693 6.73828 25.0488C6.73828 14.8283 15.0236 6.54297 25.2441 6.54297C35.4646 6.54297 43.75 14.8283 43.75 25.0488ZM15.9912 25.0488C15.9912 30.1591 20.1339 34.3018 25.2441 34.3018C30.3544 34.3018 34.4971 30.1591 34.4971 25.0488C34.4971 19.9386 30.3544 15.7959 25.2441 15.7959C20.1339 15.7959 15.9912 19.9386 15.9912 25.0488Z" fill="#3772FF"/>
<path opacity="0.4" d="M40.4432 25.0532C40.4432 33.455 33.6322 40.266 25.2304 40.266C16.8286 40.266 10.0176 33.455 10.0176 25.0532C10.0176 16.6513 16.8286 9.84033 25.2304 9.84033C33.6322 9.84033 40.4432 16.6513 40.4432 25.0532ZM17.624 25.0532C17.624 29.2541 21.0295 32.6596 25.2304 32.6596C29.4313 32.6596 32.8368 29.2541 32.8368 25.0532C32.8368 20.8523 29.4313 17.4467 25.2304 17.4467C21.0295 17.4467 17.624 20.8523 17.624 25.0532Z" fill="white"/>
<path d="M32.4036 30.3626L25.6875 33.9336L42.7773 66.0747L49.4933 62.5037L32.4036 30.3626Z" fill="white"/>
<path d="M38.6928 17.9244C42.6373 25.3428 39.8211 34.5541 32.4027 38.4985C24.9843 42.4429 15.773 39.6268 11.8286 32.2084C7.88422 24.79 10.7004 15.5787 18.1187 11.6343C25.5371 7.68988 34.7484 10.5061 38.6928 17.9244ZM18.5447 28.6374C20.5169 32.3466 25.1225 33.7547 28.8317 31.7825C32.5409 29.8103 33.949 25.2046 31.9768 21.4954C30.0046 17.7862 25.3989 16.3781 21.6897 18.3503C17.9805 20.3225 16.5724 24.9282 18.5447 28.6374Z" fill="white"/>
</g>
</g>
<defs>
<linearGradient id="paint0_linear_70_909" x1="0.250299" y1="5.48033e-07" x2="49.8909" y2="50.1471" gradientUnits="userSpaceOnUse">
<stop stop-color="#5A8BFF"/>
<stop offset="1" stop-color="#1E4092"/>
</linearGradient>
</defs>
</svg>
